<svg width="23" height="24" viewBox="0 0 23 24" fill="none" xmlns="http://www.w3.org/2000/svg">
<g clip-path="url(#clip0_335_2)">
<path d="M11.4831 24C8.43763 24 5.51684 22.8048 3.36334 20.6773C1.20983 18.5497 0 15.6642 0 12.6555H22.9663C22.9663 15.6642 21.7565 18.5497 19.603 20.6773C17.4495 22.8048 14.5287 24 11.4831 24V24Z" fill="white"/>
<path d="M21.7092 11.3425C21.6705 8.68804 20.576 6.15521 18.6623 4.29156C16.7485 2.42791 14.1693 1.38316 11.4821 1.38316C8.79489 1.38316 6.21564 2.42791 4.30188 4.29156C2.38813 6.15521 1.29363 8.68804 1.25498 11.3425H0C0 8.33377 1.20983 5.44824 3.36334 3.32073C5.51684 1.19321 8.43763 -0.00201508 11.4831 -0.00201508C14.5287 -0.00201508 17.4495 1.19321 19.603 3.32073C21.7565 5.44824 22.9663 8.33377 22.9663 11.3425H21.7092Z" fill="#FF7966"/>
<path d="M11.4832 2.83935C13.7654 2.84156 15.9536 3.73807 17.5676 5.33219C19.1816 6.92631 20.0896 9.08783 20.0924 11.3425H18.8353C18.8026 9.43723 18.0135 7.6209 16.6381 6.28494C15.2626 4.94898 13.411 4.20033 11.4821 4.20033C9.55329 4.20033 7.70164 4.94898 6.32622 6.28494C4.9508 7.6209 4.1617 9.43723 4.12899 11.3425H2.87401C2.87681 9.08783 3.78481 6.92631 5.3988 5.33219C7.01279 3.73807 9.20095 2.84156 11.4832 2.83935V2.83935Z" fill="#FF7966"/>
</g>
<defs>
<clipPath id="clip0_335_2">
<rect width="22.9663" height="24" fill="white" transform="matrix(1 0 0 -1 0 24)"/>
</clipPath>
</defs>
</svg>
