<svg width="30" height="32" viewBox="0 0 30 32" fill="none" xmlns="http://www.w3.org/2000/svg">
<g clip-path="url(#clip0_66_3641)" filter="url(#filter0_d_66_3641)">
<path d="M15.0001 8.00061C14.209 8.00061 13.4356 8.23521 12.7778 8.67473C12.12 9.11426 11.6074 9.73897 11.3046 10.4699C11.0019 11.2008 10.9226 12.005 11.077 12.781C11.2313 13.5569 11.6123 14.2696 12.1717 14.829C12.7311 15.3884 13.4438 15.7694 14.2198 15.9238C14.9957 16.0781 15.8 15.9989 16.5309 15.6961C17.2618 15.3934 17.8865 14.8807 18.326 14.2229C18.7655 13.5651 19.0001 12.7917 19.0001 12.0006C19.0001 10.9397 18.5787 9.92233 17.8286 9.17218C17.0784 8.42204 16.061 8.00061 15.0001 8.00061ZM15.0001 14.0006C14.6046 14.0006 14.2179 13.8833 13.889 13.6635C13.5601 13.4438 13.3037 13.1314 13.1524 12.766C13.001 12.4005 12.9614 11.9984 13.0386 11.6104C13.1157 11.2225 13.3062 10.8661 13.5859 10.5864C13.8656 10.3067 14.222 10.1162 14.6099 10.039C14.9979 9.96187 15.4 10.0015 15.7655 10.1529C16.1309 10.3042 16.4433 10.5606 16.6631 10.8895C16.8828 11.2184 17.0001 11.605 17.0001 12.0006C17.0001 12.531 16.7894 13.0398 16.4143 13.4148C16.0393 13.7899 15.5306 14.0006 15.0001 14.0006Z" fill="#A2A2B5"/>
<path d="M24.294 13.9L23.85 13.644C24.0499 12.5564 24.0499 11.4416 23.85 10.354L24.294 10.098C24.6355 9.90102 24.9348 9.63871 25.1748 9.32606C25.4149 9.01341 25.591 8.65654 25.6932 8.27582C25.7953 7.8951 25.8215 7.49799 25.7702 7.10716C25.7188 6.71633 25.591 6.33944 25.394 5.998C25.1971 5.65656 24.9348 5.35727 24.6221 5.1172C24.3095 4.87714 23.9526 4.70101 23.5719 4.59886C23.1911 4.49672 22.794 4.47056 22.4032 4.52189C22.0124 4.57321 21.6355 4.70102 21.294 4.898L20.849 5.155C20.0086 4.43692 19.0427 3.88025 18 3.513V3C18 2.20435 17.684 1.44129 17.1214 0.87868C16.5588 0.31607 15.7957 0 15 0C14.2044 0 13.4413 0.31607 12.8787 0.87868C12.3161 1.44129 12 2.20435 12 3V3.513C10.9574 3.88157 9.99189 4.4396 9.15204 5.159L8.70504 4.9C8.01548 4.50218 7.19612 4.39457 6.42723 4.60086C5.65833 4.80715 5.00287 5.31044 4.60504 6C4.20722 6.68956 4.09962 7.50892 4.30591 8.27782C4.5122 9.04672 5.01548 9.70218 5.70504 10.1L6.14904 10.356C5.94915 11.4436 5.94915 12.5584 6.14904 13.646L5.70504 13.902C5.01548 14.2998 4.5122 14.9553 4.30591 15.7242C4.09962 16.4931 4.20722 17.3124 4.60504 18.002C5.00287 18.6916 5.65833 19.1948 6.42723 19.4011C7.19612 19.6074 8.01548 19.4998 8.70504 19.102L9.15004 18.845C9.99081 19.5632 10.957 20.1199 12 20.487V21C12 21.7956 12.3161 22.5587 12.8787 23.1213C13.4413 23.6839 14.2044 24 15 24C15.7957 24 16.5588 23.6839 17.1214 23.1213C17.684 22.5587 18 21.7956 18 21V20.487C19.0427 20.1184 20.0082 19.5604 20.848 18.841L21.295 19.099C21.9846 19.4968 22.804 19.6044 23.5729 19.3981C24.3418 19.1918 24.9972 18.6886 25.395 17.999C25.7929 17.3094 25.9005 16.4901 25.6942 15.7212C25.4879 14.9523 24.9846 14.2968 24.295 13.899L24.294 13.9ZM21.746 10.124C22.0847 11.3511 22.0847 12.6469 21.746 13.874C21.6869 14.0876 21.7004 14.3147 21.7844 14.5198C21.8684 14.7249 22.0181 14.8963 22.21 15.007L23.294 15.633C23.5239 15.7656 23.6916 15.9841 23.7603 16.2403C23.829 16.4966 23.7932 16.7697 23.6605 16.9995C23.5279 17.2293 23.3095 17.397 23.0532 17.4658C22.7969 17.5345 22.5239 17.4986 22.294 17.366L21.208 16.738C21.0159 16.6267 20.7923 16.5826 20.5723 16.6124C20.3523 16.6423 20.1485 16.7445 19.993 16.903C19.103 17.8117 17.9816 18.46 16.75 18.778C16.5351 18.8333 16.3446 18.9585 16.2086 19.1339C16.0727 19.3094 15.9989 19.525 15.999 19.747V21C15.999 21.2652 15.8937 21.5196 15.7062 21.7071C15.5186 21.8946 15.2643 22 14.999 22C14.7338 22 14.4795 21.8946 14.2919 21.7071C14.1044 21.5196 13.999 21.2652 13.999 21V19.748C13.9992 19.526 13.9254 19.3104 13.7894 19.1349C13.6535 18.9595 13.463 18.8343 13.248 18.779C12.0164 18.4597 10.8954 17.81 10.006 16.9C9.85057 16.7415 9.64678 16.6393 9.4268 16.6094C9.20682 16.5796 8.98315 16.6237 8.79104 16.735L7.70704 17.362C7.59327 17.4287 7.46743 17.4722 7.33677 17.4901C7.2061 17.508 7.0732 17.4998 6.9457 17.4661C6.8182 17.4324 6.69862 17.3738 6.59386 17.2937C6.4891 17.2136 6.40122 17.1135 6.33528 16.9993C6.26934 16.8851 6.22664 16.759 6.20964 16.6282C6.19264 16.4974 6.20168 16.3646 6.23623 16.2373C6.27079 16.11 6.33017 15.9909 6.41098 15.8866C6.49178 15.7824 6.5924 15.6952 6.70704 15.63L7.79104 15.004C7.98299 14.8933 8.13272 14.7219 8.2167 14.5168C8.30069 14.3117 8.31417 14.0846 8.25504 13.871C7.9164 12.6439 7.9164 11.3481 8.25504 10.121C8.31311 9.90788 8.29898 9.68153 8.21486 9.47729C8.13074 9.27305 7.98136 9.10241 7.79004 8.992L6.70604 8.366C6.47623 8.23339 6.30851 8.01492 6.23978 7.75865C6.17105 7.50239 6.20693 7.22931 6.33954 6.9995C6.47215 6.76969 6.69062 6.60197 6.94689 6.53324C7.20316 6.46451 7.47623 6.50039 7.70604 6.633L8.79204 7.261C8.98362 7.37251 9.20682 7.41721 9.42657 7.38807C9.64632 7.35893 9.85015 7.25759 10.006 7.1C10.8961 6.19134 12.0175 5.54302 13.249 5.225C13.4647 5.16956 13.6556 5.04375 13.7917 4.8675C13.9277 4.69125 14.001 4.47464 14 4.252V3C14 2.73478 14.1054 2.48043 14.2929 2.29289C14.4805 2.10536 14.7348 2 15 2C15.2653 2 15.5196 2.10536 15.7071 2.29289C15.8947 2.48043 16 2.73478 16 3V4.252C15.9999 4.47396 16.0737 4.68964 16.2096 4.86508C16.3456 5.04052 16.5361 5.16573 16.751 5.221C17.9831 5.54015 19.1044 6.18988 19.994 7.1C20.1495 7.25847 20.3533 7.36069 20.5733 7.39057C20.7933 7.42044 21.0169 7.37626 21.209 7.265L22.293 6.638C22.4068 6.5713 22.5327 6.52777 22.6633 6.5099C22.794 6.49204 22.9269 6.50019 23.0544 6.5339C23.1819 6.56761 23.3015 6.6262 23.4062 6.70631C23.511 6.78642 23.5989 6.88646 23.6648 7.00067C23.7307 7.11488 23.7734 7.24101 23.7904 7.37179C23.8074 7.50257 23.7984 7.63542 23.7639 7.76269C23.7293 7.88997 23.6699 8.00915 23.5891 8.11337C23.5083 8.2176 23.4077 8.30482 23.293 8.37L22.209 8.996C22.0181 9.10671 21.8691 9.27748 21.7854 9.48169C21.7016 9.68591 21.6878 9.9121 21.746 10.125V10.124Z" fill="#A2A2B5"/>
</g>
<defs>
<filter id="filter0_d_66_3641" x="-1" y="0" width="32" height="32" filterUnits="userSpaceOnUse" color-interpolation-filters="sRGB">
<feFlood flood-opacity="0" result="BackgroundImageFix"/>
<feColorMatrix in="SourceAlpha" type="matrix" values="0 0 0 0 0 0 0 0 0 0 0 0 0 0 0 0 0 0 127 0" result="hardAlpha"/>
<feOffset dy="4"/>
<feGaussianBlur stdDeviation="2"/>
<feComposite in2="hardAlpha" operator="out"/>
<feColorMatrix type="matrix" values="0 0 0 0 0 0 0 0 0 0 0 0 0 0 0 0 0 0 0.25 0"/>
<feBlend mode="normal" in2="BackgroundImageFix" result="effect1_dropShadow_66_3641"/>
<feBlend mode="normal" in="SourceGraphic" in2="effect1_dropShadow_66_3641" result="shape"/>
</filter>
<clipPath id="clip0_66_3641">
<rect width="24" height="24" fill="white" transform="translate(3)"/>
</clipPath>
</defs>
</svg>
